<svg width="17" height="16" viewBox="0 0 17 16" fill="none" xmlns="http://www.w3.org/2000/svg">
<rect width="17" height="16" fill="transparent"/>
<g clip-path="url(#clip0_1_3)">
<rect width="1440" height="1024" transform="translate(-587 -639)" fill="transparent"/>
<g filter="url(#filter0_d_1_3)">
<rect x="-248" y="-20" width="276.667" height="56" rx="8" fill="transparent"/>
<path d="M14.0205 6.35372L9.02053 11.3537C8.9741 11.4002 8.91895 11.4371 8.85825 11.4623C8.79755 11.4874 8.73249 11.5004 8.66678 11.5004C8.60107 11.5004 8.53601 11.4874 8.47531 11.4623C8.41461 11.4371 8.35947 11.4002 8.31303 11.3537L3.31303 6.35372C3.21921 6.2599 3.1665 6.13265 3.1665 5.99997C3.1665 5.86729 3.21921 5.74004 3.31303 5.64622C3.40685 5.5524 3.5341 5.49969 3.66678 5.49969C3.79946 5.49969 3.92671 5.5524 4.02053 5.64622L8.66678 10.2931L13.313 5.64622C13.3595 5.59977 13.4146 5.56292 13.4753 5.53778C13.536 5.51263 13.6011 5.49969 13.6668 5.49969C13.7325 5.49969 13.7975 5.51263 13.8582 5.53778C13.9189 5.56292 13.9741 5.59977 14.0205 5.64622C14.067 5.69268 14.1038 5.74783 14.129 5.80852C14.1541 5.86922 14.1671 5.93428 14.1671 5.99997C14.1671 6.06567 14.1541 6.13072 14.129 6.19142C14.1038 6.25212 14.067 6.30727 14.0205 6.35372Z" fill="#353945"/>
</g>
</g>
<defs>
<filter id="filter0_d_1_3" x="-328" y="-180" width="1210" height="374" filterUnits="userSpaceOnUse" color-interpolation-filters="sRGB">
<feFlood flood-opacity="0" result="BackgroundImageFix"/>
<feColorMatrix in="SourceAlpha" type="matrix" values="0 0 0 0 0 0 0 0 0 0 0 0 0 0 0 0 0 0 127 0" result="hardAlpha"/>
<feOffset dx="10" dy="10"/>
<feGaussianBlur stdDeviation="25"/>
<feComposite in2="hardAlpha" operator="out"/>
<feColorMatrix type="matrix" values="0 0 0 0 0.0784314 0 0 0 0 0.0784314 0 0 0 0 0.0862745 0 0 0 0.1 0"/>
<feBlend mode="normal" in2="BackgroundImageFix" result="effect1_dropShadow_1_3"/>
<feBlend mode="normal" in="SourceGraphic" in2="effect1_dropShadow_1_3" result="shape"/>
</filter>
<clipPath id="clip0_1_3">
<rect width="1440" height="1024" fill="white" transform="translate(-587 -639)"/>
</clipPath>
</defs>
</svg>
